<?xml version="1.0" encoding="UTF-8"?>
<svg width="112px" height="30px" viewBox="0 0 112 30" version="1.1" xmlns="http://www.w3.org/2000/svg" xmlns:xlink="http://www.w3.org/1999/xlink">
    <!-- Generator: Sketch 51.3 (57544) - http://www.bohemiancoding.com/sketch -->
    <title>Artboard 2 Copy 2</title>
    <desc>Created with Sketch.</desc>
    <defs>
        <polygon id="path-1" points="0 0.0196158192 26.9555571 0.0196158192 26.9555571 27.9999895 0 27.9999895"></polygon>
    </defs>
    <g id="Artboard-2-Copy-2" stroke="none" stroke-width="1" fill="none" fill-rule="evenodd">
        <text id="海牛工作台" font-family="PingFangSC-Medium, PingFang SC" font-size="14" font-weight="400" fill="#1E1D1E">
            <tspan x="41" y="21">海牛工作台</tspan>
        </text>
        <g id="Group-3" transform="translate(2.000000, 1.000000)">
            <mask id="mask-2" fill="white">
                <use xlink:href="#path-1"></use>
            </mask>
            <g id="Clip-2"></g>
            <path d="M22.0625669,3.42210621 C19.5333928,1.07965047 16.4901743,0.0196052731 13.2113716,0.0196052731 C9.93251663,0.0196052731 6.91655919,1.19544708 4.69864236,3.42210621 C0.872319342,7.26348475 -0.179531721,13.2774207 0.0239866538,18.8480497 C0.0463909091,19.4335186 0.108381238,20.0035375 0.205727466,20.5571043 C2.96547215,25.0261363 7.87764429,27.9999895 13.4777681,27.9999895 C19.1084431,27.9999895 24.0433851,24.9934433 26.7945128,20.4838087 C26.8698725,19.8794621 26.9241859,19.2252851 26.9555727,18.5129461 C26.9555727,9.30194802 24.591741,5.76456196 22.0625669,3.42210621" id="Fill-1" fill="#3574FA" mask="url(#mask-2)"></path>
        </g>
        <path d="M8.7640281,10 C9.16865841,10 9.49979257,9.72010481 9.52634326,9.36593616 C11.3652994,8.52572654 13.492459,8.1054788 15.9083573,8.1054788 C17.8270726,8.1054788 19.5258347,8.38594569 20.9866042,8.85316818 C21.4974373,9.01653168 21.9419471,9.19151977 22.3177785,9.36641258 C22.3773034,9.39409242 22.4330813,9.42086708 22.4851121,9.44659362 C22.55181,9.7616484 22.8626029,10 23.2359719,10 C23.6579458,10 24,9.69556932 24,9.32000953 C24,8.94444974 23.6579458,8.64001906 23.2359719,8.64001906 C22.813998,8.64001906 22.4719438,8.94444974 22.4719438,9.32000953 L22.4719438,9.32120057 C22.4385413,9.30514531 22.4039077,9.28866127 22.3678822,9.27193902 C21.9876614,9.09504526 21.5386015,8.91824678 21.0229508,8.7533111 C19.5508331,8.2824202 17.8398662,8 15.9083573,8 C13.4965273,8 11.36819,8.41648404 9.52404149,9.24973797 C9.48453663,8.9071939 9.15934426,8.64001906 8.7640281,8.64001906 C8.3420542,8.64001906 8,8.94444974 8,9.32000953 C8,9.69556932 8.3420542,10 8.7640281,10" id="Fill-4" fill="#FFFFFF"></path>
        <path d="M21.9674925,15.0913004 C21.9674925,16.6944072 20.6336618,17.994009 18.9883805,17.994009 C17.4173135,17.994009 16.1302757,16.8090691 16.0172665,15.3064108 C16.0212135,15.2351928 16.0232389,15.1634726 16.0232389,15.0913004 L16.0232389,12 L16.0092166,12 L14.9767611,12 L14.9767611,15.0913004 C14.9767611,15.1634726 14.9787346,15.2351928 14.9827335,15.3064108 C14.8697763,16.8090691 13.5826865,17.994009 12.0116195,17.994009 C10.3662863,17.994009 9.03250746,16.6944072 9.03250746,15.0913004 L9.03250746,12 L8,12 L8,15.0913004 C8,17.2499874 9.79609869,19 12.0116195,19 C13.5061352,19 14.8097401,18.2037453 15.5,17.0228735 C16.1902599,18.2037453 17.4938648,19 18.9883805,19 C21.2039013,19 23,17.2499874 23,15.0913004 L23,12 L21.9674925,12 L21.9674925,15.0913004 Z" id="Fill-6" fill="#FFFFFF"></path>
    </g>
</svg>