<svg data-v-48be33a2="" data-v-e33b6778="" width="15" height="1em" viewBox="0 0 15 14" fill="none" xmlns="http://www.w3.org/2000/svg" class="" style="font-size: 14px; transform: rotate(0deg);"><path data-v-48be33a2="" fill-rule="evenodd" clip-rule="evenodd" d="M13.2 12C13.3657 12 13.5 12.1343 13.5 12.3L13.5 12.7C13.5 12.8657 13.3657 13 13.2 13L1.8 13C1.63432 13 1.5 12.8657 1.5 12.7L1.5 12.3C1.5 12.1343 1.63431 12 1.8 12L13.2 12ZM5.65 1C5.98137 1 6.25 1.26863 6.25 1.6L6.25 9.4C6.25 9.73137 5.98137 10 5.65 10L4.35 10C4.01863 10 3.75 9.73137 3.75 9.4L3.75 1.6C3.75 1.26863 4.01863 1 4.35 1L5.65 1ZM11.25 4.6C11.25 4.26863 10.9814 4 10.65 4L9.35 4C9.01863 4 8.75 4.26863 8.75 4.6L8.75 9.4C8.75 9.73137 9.01863 10 9.35 10L10.65 10C10.9814 10 11.25 9.73137 11.25 9.4L11.25 4.6Z" fill="currentcolor"></path></svg>