<svg data-v-48be33a2="" data-v-e33b6778="" width="15" height="1em" viewBox="0 0 15 14" fill="none" xmlns="http://www.w3.org/2000/svg" class="" style="font-size: 14px; transform: rotate(0deg);"><path data-v-48be33a2="" fill-rule="evenodd" clip-rule="evenodd" d="M7 1.3C7 1.13431 7.13431 1 7.3 1H7.7C7.86569 1 8 1.13431 8 1.3V3.24993H12.9C13.2314 3.24993 13.5 3.51856 13.5 3.84993V5.14993C13.5 5.48131 13.2314 5.74993 12.9 5.74993H8V8.24993H10.9C11.2314 8.24993 11.5 8.51856 11.5 8.84993V10.1499C11.5 10.4813 11.2314 10.7499 10.9 10.7499H8V11.5V12V12.7C8 12.8657 7.86569 13 7.7 13H7.3C7.13431 13 7 12.8657 7 12.7V12V11.5V10.7499H4.1C3.76863 10.7499 3.5 10.4813 3.5 10.1499V8.84993C3.5 8.51856 3.76863 8.24993 4.1 8.24993H7V5.74993H2.1C1.76863 5.74993 1.5 5.48131 1.5 5.14993V3.84993C1.5 3.51856 1.76863 3.24993 2.1 3.24993H7V1.3Z" fill="currentcolor"></path></svg>