<svg data-v-48be33a2="" data-v-e33b6778="" width="15" height="1em" viewBox="0 0 15 14" fill="none" xmlns="http://www.w3.org/2000/svg" class="" style="font-size: 14px; transform: rotate(0deg);"><path data-v-48be33a2="" fill-rule="evenodd" clip-rule="evenodd" d="M1.8 7.5C1.63431 7.5 1.5 7.36569 1.5 7.2L1.5 6.8C1.5 6.63431 1.63431 6.5 1.8 6.5L3.75 6.5L3.75 1.6C3.75 1.26863 4.01863 1 4.35 1L5.65 1C5.98137 1 6.25 1.26863 6.25 1.6L6.25 6.5L8.75 6.5L8.75 3.6C8.75 3.26863 9.01863 3 9.35 3L10.65 3C10.9814 3 11.25 3.26863 11.25 3.6L11.25 6.5L12 6.5L12.5 6.5L13.2 6.5C13.3657 6.5 13.5 6.63431 13.5 6.8L13.5 7.2C13.5 7.36568 13.3657 7.5 13.2 7.5L12.5 7.5L12 7.5L11.25 7.5L11.25 10.4C11.25 10.7314 10.9814 11 10.65 11L9.35 11C9.01863 11 8.75 10.7314 8.75 10.4L8.75 7.5L6.25 7.5L6.25 12.4C6.25 12.7314 5.98137 13 5.65 13L4.35 13C4.01863 13 3.75 12.7314 3.75 12.4L3.75 7.5L1.8 7.5Z" fill="currentcolor"></path></svg>