<svg data-v-48be33a2="" data-v-e33b6778="" width="15" height="1em" viewBox="0 0 15 14" fill="none" xmlns="http://www.w3.org/2000/svg" class="" style="font-size: 14px; transform: rotate(0deg);"><path data-v-48be33a2="" fill-rule="evenodd" clip-rule="evenodd" d="M13.5 1.7C13.5 1.86569 13.3657 2 13.2 2L1.8 2C1.63431 2 1.5 1.86568 1.5 1.7L1.5 1.3C1.5 1.13431 1.63431 0.999999 1.8 0.999999L13.2 1C13.3657 1 13.5 1.13432 13.5 1.3L13.5 1.7ZM13.5 12.7C13.5 12.8657 13.3657 13 13.2 13L1.8 13C1.63431 13 1.5 12.8657 1.5 12.7L1.5 12.3C1.5 12.1343 1.63431 12 1.8 12L13.2 12C13.3657 12 13.5 12.1343 13.5 12.3L13.5 12.7ZM9.9 8.25C10.2314 8.25 10.5 7.98137 10.5 7.65L10.5 6.35C10.5 6.01863 10.2314 5.75 9.9 5.75L5.1 5.75C4.76863 5.75 4.5 6.01863 4.5 6.35L4.5 7.65C4.5 7.98137 4.76863 8.25 5.1 8.25L9.9 8.25Z" fill="currentcolor"></path></svg>