<svg
    data-v-48be33a2=""
    data-v-e33b6778=""
    width="15"
    height="1em"
    viewBox="0 0 15 14"
    fill="none"
    xmlns="http://www.w3.org/2000/svg"
    class=""
    style="font-size: 14px; transform: rotate(0deg);"
  >
  <path
    data-v-48be33a2=""
    fill-rule="evenodd"
    clip-rule="evenodd"
    d="M2.5 12.7C2.5 12.8657 2.36569 13 2.2 13H1.8C1.63431 13 1.5 12.8657 1.5 12.7V1.3C1.5 1.13432 1.63431 1 1.8 1H2.2C2.36569 1 2.5 1.13431 2.5 1.3V12.7ZM13.5 5.15C13.5 5.48137 13.2314 5.75 12.9 5.75H5.1C4.76863 5.75 4.5 5.48137 4.5 5.15V3.85C4.5 3.51863 4.76863 3.25 5.1 3.25H12.9C13.2314 3.25 13.5 3.51863 13.5 3.85V5.15ZM9.9 10.75C10.2314 10.75 10.5 10.4814 10.5 10.15V8.85C10.5 8.51863 10.2314 8.25 9.9 8.25H5.1C4.76863 8.25 4.5 8.51863 4.5 8.85V10.15C4.5 10.4814 4.76863 10.75 5.1 10.75H9.9Z"
    fill="currentcolor"
  ></path>
</svg>