<svg data-v-48be33a2="" data-v-e33b6778="" width="15" height="1em" viewBox="0 0 15 14" fill="none" xmlns="http://www.w3.org/2000/svg" class="" style="font-size: 14px; transform: rotate(0deg);"><path data-v-48be33a2="" fill-rule="evenodd" clip-rule="evenodd" d="M12.5 12.7C12.5 12.8657 12.6343 13 12.8 13H13.2C13.3657 13 13.5 12.8657 13.5 12.7V1.3C13.5 1.13432 13.3657 1 13.2 1H12.8C12.6343 1 12.5 1.13431 12.5 1.3V12.7ZM1.5 5.15C1.5 5.48137 1.76863 5.75 2.1 5.75H9.9C10.2314 5.75 10.5 5.48137 10.5 5.15V3.85C10.5 3.51863 10.2314 3.25 9.9 3.25H2.1C1.76863 3.25 1.5 3.51863 1.5 3.85V5.15ZM5.1 10.75C4.76863 10.75 4.5 10.4814 4.5 10.15V8.85C4.5 8.51863 4.76863 8.25 5.1 8.25H9.9C10.2314 8.25 10.5 8.51863 10.5 8.85V10.15C10.5 10.4814 10.2314 10.75 9.9 10.75H5.1Z" fill="currentcolor"></path></svg>