<svg data-v-48be33a2="" data-v-e33b6778="" width="15" height="1em" viewBox="0 0 15 14" fill="none" xmlns="http://www.w3.org/2000/svg" class="" style="font-size: 14px; transform: rotate(0deg);"><path data-v-48be33a2="" fill-rule="evenodd" clip-rule="evenodd" d="M2.2 1C2.36569 1 2.5 1.13431 2.5 1.3L2.5 12.7C2.5 12.8657 2.36568 13 2.2 13H1.8C1.63431 13 1.5 12.8657 1.5 12.7V1.3C1.5 1.13431 1.63432 1 1.8 1H2.2ZM13.2 1C13.3657 1 13.5 1.13431 13.5 1.3L13.5 12.7C13.5 12.8657 13.3657 13 13.2 13H12.8C12.6343 13 12.5 12.8657 12.5 12.7L12.5 1.3C12.5 1.13431 12.6343 1 12.8 1H13.2ZM8.75 4.6C8.75 4.26863 8.48137 4 8.15 4H6.85C6.51863 4 6.25 4.26863 6.25 4.6L6.25 9.4C6.25 9.73137 6.51863 10 6.85 10H8.15C8.48137 10 8.75 9.73137 8.75 9.4V4.6Z" fill="currentcolor"></path></svg>