<svg data-v-48be33a2="" data-v-e33b6778="" width="15" height="1em" viewBox="0 0 15 14" fill="none" xmlns="http://www.w3.org/2000/svg" class="" style="font-size: 14px; transform: rotate(0deg);"><path data-v-48be33a2="" fill-rule="evenodd" clip-rule="evenodd" d="M13.2 2C13.3657 2 13.5 1.86569 13.5 1.7L13.5 1.3C13.5 1.13432 13.3657 1 13.2 1L1.8 1C1.63432 1 1.5 1.13431 1.5 1.3L1.5 1.7C1.5 1.86569 1.63431 2 1.8 2L13.2 2ZM5.65 13C5.98137 13 6.25 12.7314 6.25 12.4L6.25 4.6C6.25 4.26863 5.98137 4 5.65 4L4.35 4C4.01863 4 3.75 4.26863 3.75 4.6L3.75 12.4C3.75 12.7314 4.01863 13 4.35 13L5.65 13ZM11.25 9.4C11.25 9.73137 10.9814 10 10.65 10L9.35 10C9.01863 10 8.75 9.73137 8.75 9.4L8.75 4.6C8.75 4.26863 9.01863 4 9.35 4L10.65 4C10.9814 4 11.25 4.26863 11.25 4.6L11.25 9.4Z" fill="currentcolor"></path></svg>